<mxfile host="app.diagrams.net" agent="Mozilla/5.0 (Windows NT 10.0; Win64; x64) AppleWebKit/537.36 (KHTML, like Gecko) Chrome/134.0.0.0 YaBrowser/25.4.0.0 Safari/537.36" version="27.1.5">
  <diagram name="Page-1" id="8bVxH0uPEQ94kZG2czSg">
    <mxGraphModel dx="3047" dy="1229" grid="1" gridSize="10" guides="1" tooltips="1" connect="1" arrows="1" fold="1" page="1" pageScale="1" pageWidth="827" pageHeight="1169" math="0" shadow="0">
      <root>
        <mxCell id="0" />
        <mxCell id="1" parent="0" />
        <mxCell id="qLw7dphz4HWvNZp2hoCA-1" value="client" style="shape=umlActor;verticalLabelPosition=bottom;verticalAlign=top;html=1;outlineConnect=0;" parent="1" vertex="1">
          <mxGeometry x="-210" y="365" width="30" height="60" as="geometry" />
        </mxCell>
        <mxCell id="3LMeZECrKwldBwJWgPJj-11" style="edgeStyle=orthogonalEdgeStyle;rounded=0;orthogonalLoop=1;jettySize=auto;html=1;" edge="1" parent="1" source="3LMeZECrKwldBwJWgPJj-2" target="3LMeZECrKwldBwJWgPJj-8">
          <mxGeometry relative="1" as="geometry" />
        </mxCell>
        <mxCell id="3LMeZECrKwldBwJWgPJj-12" value="save file" style="edgeLabel;html=1;align=center;verticalAlign=middle;resizable=0;points=[];labelBackgroundColor=#FFCE9F;" vertex="1" connectable="0" parent="3LMeZECrKwldBwJWgPJj-11">
          <mxGeometry x="-0.1894" relative="1" as="geometry">
            <mxPoint as="offset" />
          </mxGeometry>
        </mxCell>
        <mxCell id="3LMeZECrKwldBwJWgPJj-2" value="&lt;b&gt;transaction-ms&lt;/b&gt;" style="rounded=0;whiteSpace=wrap;html=1;fillColor=#b0e3e6;strokeColor=#0e8088;" vertex="1" parent="1">
          <mxGeometry x="130" y="370" width="150" height="50" as="geometry" />
        </mxCell>
        <mxCell id="3LMeZECrKwldBwJWgPJj-3" style="edgeStyle=orthogonalEdgeStyle;rounded=0;orthogonalLoop=1;jettySize=auto;html=1;strokeWidth=2;" edge="1" parent="1" source="qLw7dphz4HWvNZp2hoCA-1" target="3LMeZECrKwldBwJWgPJj-2">
          <mxGeometry relative="1" as="geometry">
            <mxPoint x="120" y="400" as="targetPoint" />
          </mxGeometry>
        </mxCell>
        <mxCell id="3LMeZECrKwldBwJWgPJj-14" style="edgeStyle=orthogonalEdgeStyle;rounded=0;orthogonalLoop=1;jettySize=auto;html=1;" edge="1" parent="1" source="3LMeZECrKwldBwJWgPJj-8" target="3LMeZECrKwldBwJWgPJj-13">
          <mxGeometry relative="1" as="geometry" />
        </mxCell>
        <mxCell id="3LMeZECrKwldBwJWgPJj-8" value="" style="sketch=0;pointerEvents=1;shadow=0;dashed=0;html=1;strokeColor=none;fillColor=#DF8C42;labelPosition=center;verticalLabelPosition=bottom;verticalAlign=top;align=center;outlineConnect=0;shape=mxgraph.veeam2.aws_s3;" vertex="1" parent="1">
          <mxGeometry x="540" y="380" width="40" height="40" as="geometry" />
        </mxCell>
        <mxCell id="3LMeZECrKwldBwJWgPJj-15" style="edgeStyle=orthogonalEdgeStyle;rounded=0;orthogonalLoop=1;jettySize=auto;html=1;" edge="1" parent="1" source="3LMeZECrKwldBwJWgPJj-13" target="3LMeZECrKwldBwJWgPJj-16">
          <mxGeometry relative="1" as="geometry">
            <mxPoint x="420" y="465" as="targetPoint" />
          </mxGeometry>
        </mxCell>
        <mxCell id="3LMeZECrKwldBwJWgPJj-13" value="" style="sketch=0;points=[[0,0,0],[0.25,0,0],[0.5,0,0],[0.75,0,0],[1,0,0],[0,1,0],[0.25,1,0],[0.5,1,0],[0.75,1,0],[1,1,0],[0,0.25,0],[0,0.5,0],[0,0.75,0],[1,0.25,0],[1,0.5,0],[1,0.75,0]];outlineConnect=0;fontColor=#000000;fillColor=#f0a30a;strokeColor=#BD7000;dashed=0;verticalLabelPosition=bottom;verticalAlign=top;align=center;html=1;fontSize=12;fontStyle=0;aspect=fixed;shape=mxgraph.aws4.resourceIcon;resIcon=mxgraph.aws4.sns;" vertex="1" parent="1">
          <mxGeometry x="545" y="530.01" width="30" height="30" as="geometry" />
        </mxCell>
        <mxCell id="3LMeZECrKwldBwJWgPJj-31" value="" style="shape=image;html=1;verticalAlign=top;verticalLabelPosition=bottom;labelBackgroundColor=#ffffff;imageAspect=0;aspect=fixed;image=https://cdn0.iconfinder.com/data/icons/phosphor-fill-vol-2/256/file-csv-fill-128.png" vertex="1" parent="1">
          <mxGeometry x="352" y="370" width="21.75" height="21.75" as="geometry" />
        </mxCell>
        <mxCell id="3LMeZECrKwldBwJWgPJj-42" style="edgeStyle=orthogonalEdgeStyle;rounded=0;orthogonalLoop=1;jettySize=auto;html=1;" edge="1" parent="1" source="3LMeZECrKwldBwJWgPJj-32" target="qLw7dphz4HWvNZp2hoCA-1">
          <mxGeometry relative="1" as="geometry">
            <mxPoint x="-90" y="370" as="targetPoint" />
            <Array as="points">
              <mxPoint x="384" y="360" />
              <mxPoint x="-90" y="360" />
              <mxPoint x="-90" y="395" />
            </Array>
          </mxGeometry>
        </mxCell>
        <mxCell id="3LMeZECrKwldBwJWgPJj-63" value="&lt;font style=&quot;font-size: 15px;&quot;&gt;&lt;b&gt;204&lt;/b&gt;&lt;/font&gt;" style="edgeLabel;html=1;align=center;verticalAlign=middle;resizable=0;points=[];labelBackgroundColor=light-dark(#CCFFCC,#EDEDED);" vertex="1" connectable="0" parent="3LMeZECrKwldBwJWgPJj-42">
          <mxGeometry x="0.2038" y="3" relative="1" as="geometry">
            <mxPoint x="-86" y="-3" as="offset" />
          </mxGeometry>
        </mxCell>
        <mxCell id="3LMeZECrKwldBwJWgPJj-32" value="" style="shape=image;html=1;verticalAlign=top;verticalLabelPosition=bottom;labelBackgroundColor=#ffffff;imageAspect=0;aspect=fixed;image=https://cdn0.iconfinder.com/data/icons/glyphpack/170/file-pdf-128.png" vertex="1" parent="1">
          <mxGeometry x="373.75" y="370" width="20" height="20" as="geometry" />
        </mxCell>
        <mxCell id="3LMeZECrKwldBwJWgPJj-33" value="" style="dashed=0;outlineConnect=0;html=1;align=center;labelPosition=center;verticalLabelPosition=bottom;verticalAlign=top;shape=mxgraph.weblogos.json" vertex="1" parent="1">
          <mxGeometry x="393.75" y="370" width="20" height="20" as="geometry" />
        </mxCell>
        <mxCell id="3LMeZECrKwldBwJWgPJj-36" value="" style="group" vertex="1" connectable="0" parent="1">
          <mxGeometry x="295.995" y="530.005" width="117.5" height="28.75" as="geometry" />
        </mxCell>
        <mxCell id="3LMeZECrKwldBwJWgPJj-16" value="&lt;div style=&quot;line-height: 80%;&quot;&gt;&lt;br&gt;&lt;/div&gt;" style="shape=cylinder3;whiteSpace=wrap;html=1;boundedLbl=1;backgroundOutline=1;size=15;rotation=90;fillColor=#bac8d3;strokeColor=#23445d;" vertex="1" parent="3LMeZECrKwldBwJWgPJj-36">
          <mxGeometry x="44.375" y="-44.375" width="28.75" height="117.5" as="geometry" />
        </mxCell>
        <mxCell id="3LMeZECrKwldBwJWgPJj-19" value="&lt;b&gt;&lt;font face=&quot;Comic Sans MS&quot; style=&quot;font-size: 10px; color: rgb(0, 51, 102);&quot;&gt;KAFKA&lt;/font&gt;&lt;/b&gt;" style="text;html=1;align=center;verticalAlign=middle;whiteSpace=wrap;rounded=0;" vertex="1" parent="3LMeZECrKwldBwJWgPJj-36">
          <mxGeometry x="27.254999999999995" y="4.375" width="50" height="20" as="geometry" />
        </mxCell>
        <mxCell id="3LMeZECrKwldBwJWgPJj-41" style="edgeStyle=orthogonalEdgeStyle;rounded=0;orthogonalLoop=1;jettySize=auto;html=1;entryX=1;entryY=0.5;entryDx=0;entryDy=0;" edge="1" parent="1" source="3LMeZECrKwldBwJWgPJj-38" target="3LMeZECrKwldBwJWgPJj-46">
          <mxGeometry relative="1" as="geometry">
            <mxPoint x="120" y="445" as="targetPoint" />
          </mxGeometry>
        </mxCell>
        <mxCell id="3LMeZECrKwldBwJWgPJj-38" value="&lt;font style=&quot;font-size: 9px;&quot;&gt;FileListener&lt;/font&gt;" style="rounded=0;whiteSpace=wrap;html=1;fillColor=#b0e3e6;strokeColor=#0e8088;" vertex="1" parent="1">
          <mxGeometry x="150" y="440" width="70" height="20" as="geometry" />
        </mxCell>
        <mxCell id="3LMeZECrKwldBwJWgPJj-37" style="edgeStyle=orthogonalEdgeStyle;rounded=0;orthogonalLoop=1;jettySize=auto;html=1;entryX=0.5;entryY=1;entryDx=0;entryDy=0;" edge="1" parent="1" source="3LMeZECrKwldBwJWgPJj-16" target="3LMeZECrKwldBwJWgPJj-38">
          <mxGeometry relative="1" as="geometry">
            <mxPoint x="190" y="480" as="targetPoint" />
          </mxGeometry>
        </mxCell>
        <mxCell id="3LMeZECrKwldBwJWgPJj-44" value="&lt;b style=&quot;font-family: &amp;quot;Comic Sans MS&amp;quot;;&quot;&gt;&lt;font style=&quot;font-size: 9px;&quot;&gt;file saved event&lt;/font&gt;&lt;/b&gt;" style="html=1;shape=mxgraph.sysml.accEvent;strokeWidth=2;whiteSpace=wrap;align=center;fillColor=#fad7ac;strokeColor=#b46504;" vertex="1" parent="1">
          <mxGeometry x="450" y="520" width="80" height="16" as="geometry" />
        </mxCell>
        <mxCell id="3LMeZECrKwldBwJWgPJj-45" value="&lt;b style=&quot;font-family: &amp;quot;Comic Sans MS&amp;quot;;&quot;&gt;&lt;font style=&quot;font-size: 9px;&quot;&gt;file saved event&lt;/font&gt;&lt;/b&gt;" style="html=1;shape=mxgraph.sysml.accEvent;strokeWidth=2;whiteSpace=wrap;align=center;fillColor=#fad7ac;strokeColor=#b46504;" vertex="1" parent="1">
          <mxGeometry x="200" y="520" width="80" height="16" as="geometry" />
        </mxCell>
        <mxCell id="3LMeZECrKwldBwJWgPJj-47" style="edgeStyle=orthogonalEdgeStyle;rounded=0;orthogonalLoop=1;jettySize=auto;html=1;entryX=0.5;entryY=0;entryDx=0;entryDy=0;" edge="1" parent="1" source="3LMeZECrKwldBwJWgPJj-46" target="3LMeZECrKwldBwJWgPJj-79">
          <mxGeometry relative="1" as="geometry">
            <mxPoint x="75" y="610" as="targetPoint" />
            <Array as="points" />
          </mxGeometry>
        </mxCell>
        <mxCell id="3LMeZECrKwldBwJWgPJj-51" value="&lt;span style=&quot;background-color: rgb(154, 199, 191);&quot;&gt;launch&lt;/span&gt;" style="edgeLabel;html=1;align=center;verticalAlign=middle;resizable=0;points=[];" vertex="1" connectable="0" parent="3LMeZECrKwldBwJWgPJj-47">
          <mxGeometry x="-0.2417" y="-2" relative="1" as="geometry">
            <mxPoint as="offset" />
          </mxGeometry>
        </mxCell>
        <mxCell id="3LMeZECrKwldBwJWgPJj-46" value="&lt;font style=&quot;font-size: 9px;&quot;&gt;JobLauncher&lt;/font&gt;" style="rounded=0;whiteSpace=wrap;html=1;fillColor=#b0e3e6;strokeColor=#0e8088;" vertex="1" parent="1">
          <mxGeometry x="40" y="440" width="70" height="20" as="geometry" />
        </mxCell>
        <mxCell id="3LMeZECrKwldBwJWgPJj-59" style="edgeStyle=orthogonalEdgeStyle;rounded=0;orthogonalLoop=1;jettySize=auto;html=1;" edge="1" parent="1" source="3LMeZECrKwldBwJWgPJj-56" target="3LMeZECrKwldBwJWgPJj-8">
          <mxGeometry relative="1" as="geometry">
            <mxPoint x="600" y="400" as="targetPoint" />
            <Array as="points">
              <mxPoint x="610" y="654" />
              <mxPoint x="610" y="400" />
            </Array>
          </mxGeometry>
        </mxCell>
        <mxCell id="3LMeZECrKwldBwJWgPJj-60" value="read" style="edgeLabel;html=1;align=center;verticalAlign=middle;resizable=0;points=[];labelBackgroundColor=light-dark(#9bf6fd, #ededed);" vertex="1" connectable="0" parent="3LMeZECrKwldBwJWgPJj-59">
          <mxGeometry x="-0.3702" y="-1" relative="1" as="geometry">
            <mxPoint as="offset" />
          </mxGeometry>
        </mxCell>
        <mxCell id="3LMeZECrKwldBwJWgPJj-67" style="edgeStyle=orthogonalEdgeStyle;rounded=0;orthogonalLoop=1;jettySize=auto;html=1;entryX=0.5;entryY=0;entryDx=0;entryDy=0;" edge="1" parent="1" source="3LMeZECrKwldBwJWgPJj-56" target="3LMeZECrKwldBwJWgPJj-61">
          <mxGeometry relative="1" as="geometry" />
        </mxCell>
        <mxCell id="3LMeZECrKwldBwJWgPJj-69" style="rounded=0;orthogonalLoop=1;jettySize=auto;html=1;entryX=0.967;entryY=0.249;entryDx=0;entryDy=0;entryPerimeter=0;" edge="1" parent="1" source="3LMeZECrKwldBwJWgPJj-56" target="3LMeZECrKwldBwJWgPJj-68">
          <mxGeometry relative="1" as="geometry">
            <mxPoint x="15.75" y="674" as="targetPoint" />
          </mxGeometry>
        </mxCell>
        <mxCell id="3LMeZECrKwldBwJWgPJj-56" value="&lt;font style=&quot;font-size: 10px;&quot;&gt;&lt;b&gt;reader&lt;/b&gt;&lt;/font&gt;" style="rounded=0;whiteSpace=wrap;html=1;fillColor=#b0e3e6;strokeColor=#0e8088;" vertex="1" parent="1">
          <mxGeometry x="50.75" y="644" width="40" height="20" as="geometry" />
        </mxCell>
        <mxCell id="3LMeZECrKwldBwJWgPJj-74" style="edgeStyle=orthogonalEdgeStyle;rounded=0;orthogonalLoop=1;jettySize=auto;html=1;entryX=0.5;entryY=0;entryDx=0;entryDy=0;" edge="1" parent="1" source="3LMeZECrKwldBwJWgPJj-61" target="3LMeZECrKwldBwJWgPJj-71">
          <mxGeometry relative="1" as="geometry" />
        </mxCell>
        <mxCell id="3LMeZECrKwldBwJWgPJj-61" value="&lt;font style=&quot;font-size: 9px;&quot;&gt;&lt;b style=&quot;&quot;&gt;processor&lt;/b&gt;&lt;/font&gt;" style="rounded=0;whiteSpace=wrap;html=1;fillColor=#b0e3e6;strokeColor=#0e8088;" vertex="1" parent="1">
          <mxGeometry x="48.25" y="695" width="45" height="20" as="geometry" />
        </mxCell>
        <mxCell id="3LMeZECrKwldBwJWgPJj-68" value="&lt;b&gt;&lt;font face=&quot;Comic Sans MS&quot; style=&quot;font-size: 10px; background-color: light-dark(rgb(255, 133, 133), rgb(237, 237, 237));&quot;&gt;progress info&lt;/font&gt;&lt;/b&gt;" style="image;sketch=0;aspect=fixed;html=1;points=[];align=center;fontSize=12;image=img/lib/mscae/Cache_Redis_Product.svg;" vertex="1" parent="1">
          <mxGeometry x="-124.25" y="684" width="50" height="42" as="geometry" />
        </mxCell>
        <mxCell id="3LMeZECrKwldBwJWgPJj-70" style="rounded=0;orthogonalLoop=1;jettySize=auto;html=1;entryX=0.967;entryY=0.488;entryDx=0;entryDy=0;entryPerimeter=0;" edge="1" parent="1" source="3LMeZECrKwldBwJWgPJj-61" target="3LMeZECrKwldBwJWgPJj-68">
          <mxGeometry relative="1" as="geometry" />
        </mxCell>
        <mxCell id="3LMeZECrKwldBwJWgPJj-72" style="rounded=0;orthogonalLoop=1;jettySize=auto;html=1;entryX=0.948;entryY=0.735;entryDx=0;entryDy=0;entryPerimeter=0;" edge="1" parent="1" source="3LMeZECrKwldBwJWgPJj-71" target="3LMeZECrKwldBwJWgPJj-68">
          <mxGeometry relative="1" as="geometry">
            <mxPoint x="-84.25" y="704" as="targetPoint" />
          </mxGeometry>
        </mxCell>
        <mxCell id="3LMeZECrKwldBwJWgPJj-76" style="edgeStyle=orthogonalEdgeStyle;rounded=0;orthogonalLoop=1;jettySize=auto;html=1;" edge="1" parent="1" source="3LMeZECrKwldBwJWgPJj-71" target="3LMeZECrKwldBwJWgPJj-77">
          <mxGeometry relative="1" as="geometry">
            <mxPoint x="515.75" y="754" as="targetPoint" />
          </mxGeometry>
        </mxCell>
        <mxCell id="3LMeZECrKwldBwJWgPJj-78" value="write(batch)" style="edgeLabel;html=1;align=center;verticalAlign=middle;resizable=0;points=[];labelBackgroundColor=light-dark(#9efff4, #ededed);" vertex="1" connectable="0" parent="3LMeZECrKwldBwJWgPJj-76">
          <mxGeometry x="-0.3018" y="2" relative="1" as="geometry">
            <mxPoint as="offset" />
          </mxGeometry>
        </mxCell>
        <mxCell id="3LMeZECrKwldBwJWgPJj-71" value="&lt;font style=&quot;font-size: 9px;&quot;&gt;&lt;b style=&quot;&quot;&gt;writer&lt;/b&gt;&lt;/font&gt;" style="rounded=0;whiteSpace=wrap;html=1;fillColor=#b0e3e6;strokeColor=#0e8088;" vertex="1" parent="1">
          <mxGeometry x="48.25" y="744" width="45" height="20" as="geometry" />
        </mxCell>
        <mxCell id="3LMeZECrKwldBwJWgPJj-77" value="" style="image;aspect=fixed;html=1;points=[];align=center;fontSize=12;image=img/lib/azure2/databases/Azure_Database_PostgreSQL_Server.svg;" vertex="1" parent="1">
          <mxGeometry x="535.75" y="724.5" width="44.25" height="59" as="geometry" />
        </mxCell>
        <mxCell id="3LMeZECrKwldBwJWgPJj-84" style="edgeStyle=orthogonalEdgeStyle;rounded=0;orthogonalLoop=1;jettySize=auto;html=1;entryX=0.5;entryY=0;entryDx=0;entryDy=0;" edge="1" parent="1" source="3LMeZECrKwldBwJWgPJj-79" target="3LMeZECrKwldBwJWgPJj-83">
          <mxGeometry relative="1" as="geometry" />
        </mxCell>
        <mxCell id="3LMeZECrKwldBwJWgPJj-79" value="&lt;b style=&quot;font-family: &amp;quot;Comic Sans MS&amp;quot;;&quot;&gt;&lt;font style=&quot;font-size: 9px;&quot;&gt;FileProcessingJob&lt;/font&gt;&lt;/b&gt;" style="swimlane;whiteSpace=wrap;html=1;fillColor=#b0e3e6;strokeColor=#0e8088;" vertex="1" parent="1">
          <mxGeometry x="20" y="610" width="110" height="160" as="geometry">
            <mxRectangle x="30" y="610" width="120" height="30" as="alternateBounds" />
          </mxGeometry>
        </mxCell>
        <mxCell id="3LMeZECrKwldBwJWgPJj-81" value="" style="image;aspect=fixed;perimeter=ellipsePerimeter;html=1;align=center;shadow=0;dashed=0;fontColor=#4277BB;labelBackgroundColor=default;fontSize=12;spacingTop=3;image=img/lib/ibm/blockchain/event_listener.svg;" vertex="1" parent="1">
          <mxGeometry x="210" y="430" width="15" height="15" as="geometry" />
        </mxCell>
        <mxCell id="3LMeZECrKwldBwJWgPJj-82" value="" style="image;aspect=fixed;perimeter=ellipsePerimeter;html=1;align=center;shadow=0;dashed=0;fontColor=#4277BB;labelBackgroundColor=default;fontSize=12;spacingTop=3;image=img/lib/ibm/blockchain/event_listener.svg;" vertex="1" parent="1">
          <mxGeometry x="565" y="521" width="15" height="15" as="geometry" />
        </mxCell>
        <mxCell id="3LMeZECrKwldBwJWgPJj-87" style="edgeStyle=orthogonalEdgeStyle;rounded=0;orthogonalLoop=1;jettySize=auto;html=1;entryX=0.5;entryY=0;entryDx=0;entryDy=0;" edge="1" parent="1" source="3LMeZECrKwldBwJWgPJj-83" target="3LMeZECrKwldBwJWgPJj-88">
          <mxGeometry relative="1" as="geometry">
            <mxPoint x="75" y="870" as="targetPoint" />
          </mxGeometry>
        </mxCell>
        <mxCell id="3LMeZECrKwldBwJWgPJj-83" value="&lt;font style=&quot;font-size: 8px;&quot;&gt;&lt;b&gt;FileProcessingJobListener&lt;/b&gt;&lt;/font&gt;" style="rounded=0;whiteSpace=wrap;html=1;fillColor=#b0e3e6;strokeColor=#0e8088;" vertex="1" parent="1">
          <mxGeometry x="21.44" y="820" width="107.12" height="20" as="geometry" />
        </mxCell>
        <mxCell id="3LMeZECrKwldBwJWgPJj-85" value="" style="image;aspect=fixed;perimeter=ellipsePerimeter;html=1;align=center;shadow=0;dashed=0;fontColor=#4277BB;labelBackgroundColor=default;fontSize=12;spacingTop=3;image=img/lib/ibm/blockchain/event_listener.svg;" vertex="1" parent="1">
          <mxGeometry x="115" y="810" width="15" height="15" as="geometry" />
        </mxCell>
        <mxCell id="3LMeZECrKwldBwJWgPJj-99" style="edgeStyle=orthogonalEdgeStyle;rounded=0;orthogonalLoop=1;jettySize=auto;html=1;entryX=0.5;entryY=0;entryDx=0;entryDy=0;entryPerimeter=0;" edge="1" parent="1" source="3LMeZECrKwldBwJWgPJj-88" target="3LMeZECrKwldBwJWgPJj-101">
          <mxGeometry relative="1" as="geometry">
            <mxPoint x="250" y="890" as="targetPoint" />
          </mxGeometry>
        </mxCell>
        <mxCell id="3LMeZECrKwldBwJWgPJj-117" value="send" style="edgeLabel;html=1;align=center;verticalAlign=middle;resizable=0;points=[];" vertex="1" connectable="0" parent="3LMeZECrKwldBwJWgPJj-99">
          <mxGeometry x="-0.134" y="-2" relative="1" as="geometry">
            <mxPoint as="offset" />
          </mxGeometry>
        </mxCell>
        <mxCell id="3LMeZECrKwldBwJWgPJj-88" value="&lt;span style=&quot;font-size: 8px;&quot;&gt;&lt;b&gt;NotificationService&lt;/b&gt;&lt;/span&gt;" style="rounded=0;whiteSpace=wrap;html=1;fillColor=#b0e3e6;strokeColor=#0e8088;" vertex="1" parent="1">
          <mxGeometry x="21.439999999999994" y="880" width="107.12" height="20" as="geometry" />
        </mxCell>
        <mxCell id="3LMeZECrKwldBwJWgPJj-100" value="" style="group;rotation=-180;" vertex="1" connectable="0" parent="1">
          <mxGeometry x="289.5" y="875.63" width="117.5" height="96.75" as="geometry" />
        </mxCell>
        <mxCell id="3LMeZECrKwldBwJWgPJj-101" value="&lt;div style=&quot;line-height: 80%;&quot;&gt;&lt;br&gt;&lt;/div&gt;" style="shape=cylinder3;whiteSpace=wrap;html=1;boundedLbl=1;backgroundOutline=1;size=15;rotation=-90;fillColor=#bac8d3;strokeColor=#23445d;" vertex="1" parent="3LMeZECrKwldBwJWgPJj-100">
          <mxGeometry x="67.25" y="-67.25" width="28.75" height="164" as="geometry" />
        </mxCell>
        <mxCell id="3LMeZECrKwldBwJWgPJj-106" value="&lt;b&gt;&lt;font face=&quot;Comic Sans MS&quot; style=&quot;font-size: 10px; color: rgb(0, 51, 102);&quot;&gt;KAFKA&lt;/font&gt;&lt;/b&gt;" style="text;html=1;align=center;verticalAlign=middle;whiteSpace=wrap;rounded=0;" vertex="1" parent="3LMeZECrKwldBwJWgPJj-100">
          <mxGeometry x="67.25" y="4.749999999999996" width="50" height="20" as="geometry" />
        </mxCell>
        <mxCell id="3LMeZECrKwldBwJWgPJj-116" value="&lt;font style=&quot;font-size: 10px;&quot;&gt;JobInfo&lt;/font&gt;" style="rounded=0;whiteSpace=wrap;html=1;fillColor=#b0e3e6;strokeColor=#0e8088;" vertex="1" parent="1">
          <mxGeometry x="180" y="860" width="40" height="20" as="geometry" />
        </mxCell>
        <mxCell id="3LMeZECrKwldBwJWgPJj-147" value="" style="group" vertex="1" connectable="0" parent="1">
          <mxGeometry x="-110" y="458" width="120" height="140" as="geometry" />
        </mxCell>
        <mxCell id="3LMeZECrKwldBwJWgPJj-131" value="" style="image;aspect=fixed;html=1;points=[];align=center;fontSize=12;image=img/lib/azure2/other/Grafana.svg;" vertex="1" parent="3LMeZECrKwldBwJWgPJj-147">
          <mxGeometry x="11.159999999999997" y="82.82000000000005" width="55.12" height="42.8" as="geometry" />
        </mxCell>
        <mxCell id="3LMeZECrKwldBwJWgPJj-146" value="&lt;b style=&quot;font-family: &amp;quot;Comic Sans MS&amp;quot;;&quot;&gt;&lt;font style=&quot;font-size: 9px;&quot;&gt;Observibility&lt;/font&gt;&lt;/b&gt;" style="swimlane;whiteSpace=wrap;html=1;fillColor=#b0e3e6;strokeColor=#0e8088;" vertex="1" parent="3LMeZECrKwldBwJWgPJj-147">
          <mxGeometry width="77.44" height="140" as="geometry">
            <mxRectangle width="120" height="30" as="alternateBounds" />
          </mxGeometry>
        </mxCell>
        <mxCell id="3LMeZECrKwldBwJWgPJj-130" value="" style="points=[];aspect=fixed;html=1;align=center;shadow=0;dashed=0;fillColor=#FF6A00;strokeColor=none;shape=mxgraph.alibaba_cloud.prometheus;" vertex="1" parent="3LMeZECrKwldBwJWgPJj-146">
          <mxGeometry x="14.27000000000001" y="29.670000000000016" width="48.9" height="48.9" as="geometry" />
        </mxCell>
        <mxCell id="3LMeZECrKwldBwJWgPJj-149" value="&lt;font face=&quot;Lucida Console&quot; size=&quot;1&quot;&gt;ENDPOINTS&lt;/font&gt;" style="swimlane;whiteSpace=wrap;html=1;fillColor=#b0e3e6;strokeColor=#0e8088;" vertex="1" parent="1">
          <mxGeometry x="-500" y="320" width="200" height="200" as="geometry">
            <mxRectangle x="30" y="610" width="120" height="30" as="alternateBounds" />
          </mxGeometry>
        </mxCell>
        <mxCell id="3LMeZECrKwldBwJWgPJj-150" value="&lt;b&gt;/import&lt;/b&gt;" style="whiteSpace=wrap;html=1;fillColor=#b0e3e6;strokeColor=#0e8088;" vertex="1" parent="3LMeZECrKwldBwJWgPJj-149">
          <mxGeometry x="110" y="40" width="74.25" height="20" as="geometry" />
        </mxCell>
        <mxCell id="3LMeZECrKwldBwJWgPJj-151" value="&lt;b&gt;/cancel/{id}&lt;/b&gt;" style="whiteSpace=wrap;html=1;fillColor=#b0e3e6;strokeColor=#0e8088;" vertex="1" parent="3LMeZECrKwldBwJWgPJj-149">
          <mxGeometry x="110" y="70" width="74.25" height="20" as="geometry" />
        </mxCell>
        <mxCell id="3LMeZECrKwldBwJWgPJj-152" value="&lt;b&gt;{id}&lt;/b&gt;&lt;b&gt;/status&lt;/b&gt;" style="whiteSpace=wrap;html=1;fillColor=#b0e3e6;strokeColor=#0e8088;" vertex="1" parent="3LMeZECrKwldBwJWgPJj-149">
          <mxGeometry x="110" y="100" width="74.25" height="20" as="geometry" />
        </mxCell>
        <mxCell id="3LMeZECrKwldBwJWgPJj-154" value="&lt;b&gt;{id}&lt;/b&gt;&lt;b&gt;/errors&lt;/b&gt;" style="whiteSpace=wrap;html=1;fillColor=#b0e3e6;strokeColor=#0e8088;" vertex="1" parent="3LMeZECrKwldBwJWgPJj-149">
          <mxGeometry x="110" y="132.5" width="74.25" height="20" as="geometry" />
        </mxCell>
        <mxCell id="3LMeZECrKwldBwJWgPJj-156" value="&lt;span style=&quot;background-color: light-dark(rgb(176, 227, 230), rgb(237, 237, 237));&quot;&gt;&lt;font face=&quot;Lucida Console&quot; style=&quot;font-size: 13px;&quot;&gt;POST&lt;/font&gt;&lt;/span&gt;" style="text;html=1;align=center;verticalAlign=middle;whiteSpace=wrap;rounded=0;" vertex="1" parent="3LMeZECrKwldBwJWgPJj-149">
          <mxGeometry x="20" y="35" width="60" height="30" as="geometry" />
        </mxCell>
        <mxCell id="3LMeZECrKwldBwJWgPJj-159" value="&lt;span style=&quot;background-color: light-dark(rgb(176, 227, 230), rgb(237, 237, 237));&quot;&gt;&lt;font face=&quot;Lucida Console&quot; style=&quot;font-size: 13px;&quot;&gt;POST&lt;/font&gt;&lt;/span&gt;" style="text;html=1;align=center;verticalAlign=middle;whiteSpace=wrap;rounded=0;" vertex="1" parent="3LMeZECrKwldBwJWgPJj-149">
          <mxGeometry x="20" y="65" width="60" height="30" as="geometry" />
        </mxCell>
        <mxCell id="3LMeZECrKwldBwJWgPJj-160" value="&lt;span style=&quot;background-color: light-dark(rgb(176, 227, 230), rgb(237, 237, 237));&quot;&gt;&lt;font face=&quot;Lucida Console&quot; style=&quot;font-size: 13px;&quot;&gt;GET&lt;/font&gt;&lt;/span&gt;" style="text;html=1;align=center;verticalAlign=middle;whiteSpace=wrap;rounded=0;" vertex="1" parent="3LMeZECrKwldBwJWgPJj-149">
          <mxGeometry x="20" y="95" width="60" height="30" as="geometry" />
        </mxCell>
        <mxCell id="3LMeZECrKwldBwJWgPJj-161" value="&lt;span style=&quot;background-color: light-dark(rgb(176, 227, 230), rgb(237, 237, 237));&quot;&gt;&lt;font face=&quot;Lucida Console&quot; style=&quot;font-size: 13px;&quot;&gt;GET&lt;/font&gt;&lt;/span&gt;" style="text;html=1;align=center;verticalAlign=middle;whiteSpace=wrap;rounded=0;" vertex="1" parent="3LMeZECrKwldBwJWgPJj-149">
          <mxGeometry x="20" y="127.5" width="60" height="30" as="geometry" />
        </mxCell>
        <mxCell id="3LMeZECrKwldBwJWgPJj-163" value="&lt;b&gt;/prometheus&lt;/b&gt;" style="whiteSpace=wrap;html=1;fillColor=#b0e3e6;strokeColor=#0e8088;" vertex="1" parent="3LMeZECrKwldBwJWgPJj-149">
          <mxGeometry x="110" y="165" width="74.25" height="20" as="geometry" />
        </mxCell>
        <mxCell id="3LMeZECrKwldBwJWgPJj-164" value="&lt;span style=&quot;background-color: light-dark(rgb(176, 227, 230), rgb(237, 237, 237));&quot;&gt;&lt;font face=&quot;Lucida Console&quot; style=&quot;font-size: 13px;&quot;&gt;GET&lt;/font&gt;&lt;/span&gt;" style="text;html=1;align=center;verticalAlign=middle;whiteSpace=wrap;rounded=0;" vertex="1" parent="3LMeZECrKwldBwJWgPJj-149">
          <mxGeometry x="20" y="160" width="60" height="30" as="geometry" />
        </mxCell>
        <mxCell id="3LMeZECrKwldBwJWgPJj-153" value="" style="swimlane;startSize=0;strokeWidth=4;fillColor=#b0e3e6;strokeColor=#0e8088;" vertex="1" parent="1">
          <mxGeometry x="-150" y="330" width="780" height="600" as="geometry" />
        </mxCell>
        <mxCell id="3LMeZECrKwldBwJWgPJj-166" value="&lt;font face=&quot;Lucida Console&quot; size=&quot;1&quot;&gt;IMPORTANT&lt;/font&gt;" style="swimlane;whiteSpace=wrap;html=1;fillColor=#b0e3e6;strokeColor=#0e8088;" vertex="1" parent="1">
          <mxGeometry x="-500" y="554" width="200" height="136" as="geometry">
            <mxRectangle x="30" y="610" width="120" height="30" as="alternateBounds" />
          </mxGeometry>
        </mxCell>
        <mxCell id="3LMeZECrKwldBwJWgPJj-171" value="&lt;font face=&quot;Lucida Console&quot;&gt;&lt;span style=&quot;font-size: 13px; background-color: rgb(176, 227, 230);&quot;&gt;JOB OPTIMIZATION&lt;/span&gt;&lt;/font&gt;" style="text;html=1;align=center;verticalAlign=middle;whiteSpace=wrap;rounded=0;" vertex="1" parent="3LMeZECrKwldBwJWgPJj-166">
          <mxGeometry x="10" y="35" width="170" height="30" as="geometry" />
        </mxCell>
        <mxCell id="3LMeZECrKwldBwJWgPJj-178" value="&lt;font face=&quot;Lucida Console&quot;&gt;&lt;span style=&quot;font-size: 13px; background-color: rgb(176, 227, 230);&quot;&gt;FILE VALIDATION&lt;/span&gt;&lt;/font&gt;" style="text;html=1;align=center;verticalAlign=middle;whiteSpace=wrap;rounded=0;" vertex="1" parent="3LMeZECrKwldBwJWgPJj-166">
          <mxGeometry x="10" y="55" width="170" height="30" as="geometry" />
        </mxCell>
        <mxCell id="3LMeZECrKwldBwJWgPJj-179" value="&lt;font face=&quot;Lucida Console&quot;&gt;&lt;span style=&quot;font-size: 13px; background-color: rgb(176, 227, 230);&quot;&gt;File encoding&lt;/span&gt;&lt;/font&gt;" style="text;html=1;align=center;verticalAlign=middle;whiteSpace=wrap;rounded=0;" vertex="1" parent="3LMeZECrKwldBwJWgPJj-166">
          <mxGeometry x="10" y="76" width="170" height="30" as="geometry" />
        </mxCell>
        <mxCell id="3LMeZECrKwldBwJWgPJj-180" value="&lt;font face=&quot;Lucida Console&quot;&gt;&lt;span style=&quot;font-size: 13px; background-color: rgb(176, 227, 230);&quot;&gt;FILE VALIDATION&lt;/span&gt;&lt;/font&gt;" style="text;html=1;align=center;verticalAlign=middle;whiteSpace=wrap;rounded=0;" vertex="1" parent="3LMeZECrKwldBwJWgPJj-166">
          <mxGeometry x="10" y="96" width="170" height="30" as="geometry" />
        </mxCell>
        <mxCell id="3LMeZECrKwldBwJWgPJj-190" style="edgeStyle=orthogonalEdgeStyle;rounded=0;orthogonalLoop=1;jettySize=auto;html=1;" edge="1" parent="1" source="3LMeZECrKwldBwJWgPJj-181" target="3LMeZECrKwldBwJWgPJj-186">
          <mxGeometry relative="1" as="geometry" />
        </mxCell>
        <mxCell id="3LMeZECrKwldBwJWgPJj-181" value="&lt;font style=&quot;font-size: 9px;&quot;&gt;&lt;b&gt;Listener&lt;/b&gt;&lt;/font&gt;" style="rounded=0;whiteSpace=wrap;html=1;fillColor=#d0cee2;strokeColor=#56517e;" vertex="1" parent="1">
          <mxGeometry x="837.5" y="804.13" width="70" height="20" as="geometry" />
        </mxCell>
        <mxCell id="3LMeZECrKwldBwJWgPJj-182" value="" style="image;aspect=fixed;perimeter=ellipsePerimeter;html=1;align=center;shadow=0;dashed=0;labelBackgroundColor=default;fontSize=12;spacingTop=3;image=img/lib/ibm/blockchain/event_listener.svg;fillColor=#d0cee2;strokeColor=#56517e;" vertex="1" parent="1">
          <mxGeometry x="897.5" y="800" width="15" height="15" as="geometry" />
        </mxCell>
        <mxCell id="3LMeZECrKwldBwJWgPJj-119" value="&lt;b&gt;notification-ms&lt;/b&gt;" style="rounded=0;whiteSpace=wrap;html=1;fillColor=#d0cee2;strokeColor=#56517e;" vertex="1" parent="1">
          <mxGeometry x="800" y="740" width="150" height="50" as="geometry" />
        </mxCell>
        <mxCell id="3LMeZECrKwldBwJWgPJj-122" value="user" style="shape=umlActor;verticalLabelPosition=bottom;verticalAlign=top;html=1;outlineConnect=0;" vertex="1" parent="1">
          <mxGeometry x="1090" y="840" width="30" height="60" as="geometry" />
        </mxCell>
        <mxCell id="3LMeZECrKwldBwJWgPJj-123" style="edgeStyle=orthogonalEdgeStyle;rounded=0;orthogonalLoop=1;jettySize=auto;html=1;strokeWidth=2;" edge="1" parent="1" source="3LMeZECrKwldBwJWgPJj-186" target="3LMeZECrKwldBwJWgPJj-122">
          <mxGeometry relative="1" as="geometry" />
        </mxCell>
        <mxCell id="3LMeZECrKwldBwJWgPJj-124" value="&lt;b style=&quot;background-color: rgb(195, 171, 208);&quot;&gt;sendEmail&lt;/b&gt;" style="edgeLabel;html=1;align=center;verticalAlign=middle;resizable=0;points=[];" vertex="1" connectable="0" parent="3LMeZECrKwldBwJWgPJj-123">
          <mxGeometry x="-0.0949" relative="1" as="geometry">
            <mxPoint as="offset" />
          </mxGeometry>
        </mxCell>
        <mxCell id="3LMeZECrKwldBwJWgPJj-186" value="&lt;font style=&quot;font-size: 9px;&quot;&gt;&lt;b&gt;EmailService&lt;/b&gt;&lt;/font&gt;" style="rounded=0;whiteSpace=wrap;html=1;fillColor=#d0cee2;strokeColor=#56517e;" vertex="1" parent="1">
          <mxGeometry x="840" y="860" width="70" height="20" as="geometry" />
        </mxCell>
        <mxCell id="3LMeZECrKwldBwJWgPJj-192" value="" style="swimlane;startSize=0;strokeWidth=4;fillColor=#e1d5e7;strokeColor=#9673a6;" vertex="1" parent="1">
          <mxGeometry x="750" y="720" width="300" height="180" as="geometry" />
        </mxCell>
        <mxCell id="3LMeZECrKwldBwJWgPJj-193" style="edgeStyle=orthogonalEdgeStyle;rounded=0;orthogonalLoop=1;jettySize=auto;html=1;strokeWidth=3;" edge="1" parent="1" source="3LMeZECrKwldBwJWgPJj-101" target="3LMeZECrKwldBwJWgPJj-192">
          <mxGeometry relative="1" as="geometry">
            <Array as="points">
              <mxPoint x="630" y="890" />
              <mxPoint x="630" y="810" />
            </Array>
          </mxGeometry>
        </mxCell>
      </root>
    </mxGraphModel>
  </diagram>
</mxfile>
